<?xml version="1.0" encoding="utf-8"?>
<!-- Generator: Adobe Illustrator 21.1.0, SVG Export Plug-In . SVG Version: 6.00 Build 0)  -->
<svg version="1.1" id="Layer_1" xmlns="http://www.w3.org/2000/svg" xmlns:xlink="http://www.w3.org/1999/xlink" x="0px" y="0px"
	 viewBox="0 0 441.4 104.6" style="enable-background:new 0 0 441.4 104.6;" xml:space="preserve">
<style type="text/css">
	.st0{fill:#0F0F0F;}
	.st1{fill:url(#SVGID_1_);}
	.st2{fill:url(#SVGID_2_);}
	.st3{fill:url(#SVGID_3_);}
	.st4{fill:url(#SVGID_4_);}
	.st5{fill:url(#SVGID_5_);}
	.st6{fill:url(#SVGID_6_);}
</style>
<title>logo-black</title>
<g>
	<path class="st0" d="M-74.2-201.5c0,14.4-10.7,24.5-26.2,24.5h-20.4v-49h20.8C-84.8-226-74.2-216-74.2-201.5z M-85.5-201.5
		c0-9-6.3-15.3-14.7-15.3h-9.5v30.4h10C-91.5-186.3-85.5-192.5-85.5-201.5z"/>
	<path class="st0" d="M-16.9-201.5c0,14.1-11.3,25-26.3,25s-26.3-10.8-26.3-25c0-14.3,11.3-24.9,26.3-24.9S-16.9-215.7-16.9-201.5z
		 M-58.2-201.5c0,8.6,6.9,15.3,15.1,15.3c8.2,0,14.8-6.7,14.8-15.3s-6.7-15.2-14.8-15.2C-51.4-216.7-58.2-210.1-58.2-201.5z"/>
	<path class="st0" d="M20.5-177l-7.8-14h-1H1.5v14H-9.6v-49h21.3c12.8,0,20.1,6.2,20.1,17c0,7.6-3.2,13-9.2,15.8L33-177H20.5z
		 M1.4-200.3h10.2c6.1,0,9.6-2.8,9.6-8.4c0-5.5-3.5-8.2-9.6-8.2H1.4V-200.3z"/>
	<path class="st0" d="M78.3-226v9.2H52v10.6h23.7v9.2H52.1v10.9h27v9.1H41v-49H78.3z"/>
</g>
<g>
	<g>
		<g>
			<linearGradient id="SVGID_1_" gradientUnits="userSpaceOnUse" x1="-272.2435" y1="-246.8585" x2="-215.1769" y2="-98.1951">
				<stop  offset="0" style="stop-color:#2360B1"/>
				<stop  offset="0.25" style="stop-color:#256FBF"/>
				<stop  offset="0.5594" style="stop-color:#2360B1"/>
				<stop  offset="0.8" style="stop-color:#A02D6E"/>
				<stop  offset="0.9" style="stop-color:#F3506F"/>
				<stop  offset="1" style="stop-color:#FCB450"/>
			</linearGradient>
			<path class="st1" d="M-223.2-115.8c-0.4,0-0.9,0-1.3-0.1l3.6-4.6c0.3-0.4,0.8-0.7,1.4-0.7c0.4,0,0.8,0.1,1.1,0.4
				c0.8,0.6,0.9,1.8,0.3,2.6C-219.3-116.7-221.2-115.8-223.2-115.8z M-224.7-115.9c-0.9-0.2-1.8-0.6-2.5-1.2c-1.2-0.9-2-2.2-2.3-3.7
				c-0.1-0.5,0-1,0.2-1.4c0.3-0.4,0.7-0.7,1.1-0.8c0.1,0,0.3,0,0.4,0c0.9,0,1.6,0.6,1.8,1.4L-224.7-115.9z"/>
		</g>
		<g>
			<linearGradient id="SVGID_2_" gradientUnits="userSpaceOnUse" x1="-268.5507" y1="-272.3282" x2="-198.2563" y2="-89.2048">
				<stop  offset="0" style="stop-color:#2360B1"/>
				<stop  offset="0.25" style="stop-color:#256FBF"/>
				<stop  offset="0.5594" style="stop-color:#2360B1"/>
				<stop  offset="0.8" style="stop-color:#A02D6E"/>
				<stop  offset="0.9" style="stop-color:#F3506F"/>
				<stop  offset="1" style="stop-color:#FCB450"/>
			</linearGradient>
			<path class="st2" d="M-207.2-110.3c-0.1,0-0.3,0-0.4,0c-0.6,0-1.1-0.1-1.7-0.3l4.1-4.1c0.2-0.2,0.6-0.4,1-0.4
				c0.5,0,1,0.2,1.4,0.6c0.3,0.4,0.5,0.8,0.5,1.3c0,0.5-0.3,0.9-0.6,1.3C-204.1-110.9-205.6-110.3-207.2-110.3z M-209.8-110.8
				c-0.9-0.4-1.6-0.9-2.3-1.7c-1-1.1-1.5-2.5-1.6-4c0-0.5,0.2-1,0.5-1.3c0.3-0.4,0.8-0.6,1.3-0.6c1,0,1.9,0.8,1.9,1.8L-209.8-110.8z
				"/>
		</g>
		<g>
			<linearGradient id="SVGID_3_" gradientUnits="userSpaceOnUse" x1="-250.3518" y1="-155.5126" x2="-214.5489" y2="-62.2429">
				<stop  offset="0" style="stop-color:#2360B1"/>
				<stop  offset="0.25" style="stop-color:#256FBF"/>
				<stop  offset="0.5594" style="stop-color:#2360B1"/>
				<stop  offset="0.8" style="stop-color:#A02D6E"/>
				<stop  offset="0.9" style="stop-color:#F3506F"/>
				<stop  offset="1" style="stop-color:#FCB450"/>
			</linearGradient>
			<path class="st3" d="M-230.2-45.4c-24.6,0-44.7-20.1-44.7-44.7c0-15.5,7.9-29.7,21-37.9c5.2-3.2,10.9-5.4,16.9-6.3l1.9-0.3
				l0.4-1.9c1.1-4.5,3.7-8.5,7.5-11.3l1.1-0.8l1.1,0.8c0.9,0.7,1.8,1.4,2.6,2.2c1.3,1.4,2.4,2.9,3.3,4.6c0.1,0.2,0.2,0.3,0.3,0.5
				l0.7,1.5l1.6,0.1c4.2,0.3,8.5,1.5,12.3,3.4l1.3,0.7l1.3-0.7c0.4-0.2,0.7-0.4,1.1-0.6c0.4-0.2,0.8-0.4,1.3-0.6
				c2.2-0.8,4.5-1.3,6.8-1.3l1.6,0l0.2,1.6c0.1,0.8,0.2,1.7,0.2,2.5c0,3-0.7,5.9-2,8.6l-0.2,0.4l-0.4,0.7l0.1,0.8
				c0.1,0.7,0.1,1.4,0.1,2.1c0,2.1-0.3,4.3-0.9,6.3c-1,3.4-2.9,6.5-5.4,9.1c-0.4,0.4-0.9,0.9-1.3,1.2c-0.5,0.4-0.9,0.8-1.4,1.1
				c-3.7,2.7-8.1,4.1-12.7,4.1c-6.9,0-13.5-3.3-17.6-9l-0.1-0.2c-0.1-0.2-0.3-0.4-0.4-0.5c-1.4-1.5-3.4-2.4-5.5-2.4
				c-1.7,0-3.2,0.5-4.5,1.6c-0.1,0.1-0.2,0.2-0.3,0.3c-1.6,1.5-2.4,3.5-2.1,5.7c0.3,2.3,1.8,4.2,3.8,5.2l31,14.7l0.1,0
				c2.7,1.5,4.6,4,5.4,7c0.8,3,0.4,6-1.2,8.7c-2,3.5-5.9,5.7-9.9,5.7c-2,0-4-0.5-5.7-1.6l-5.7-3.1l-1.4,1c-0.6,0.4-1.2,0.7-1.8,0.9
				c-0.7,0.2-1.5,0.4-2.3,0.4c-1.2,0-2.3-0.3-3.4-0.8l-14.1-7.8l1.9-3.5l0.9-0.3c0.2-0.1,0.3-0.1,0.5-0.1l1.7-0.3l0.9,1.5
				c0.1,0.2,0.2,0.5,0.3,0.8l0.2,1.3l9.4,5.3l0.1,0c0.5,0.2,1,0.3,1.6,0.3c1.4,0,2.7-0.8,3.3-2c0.5-0.9,0.5-1.9,0.2-2.8
				c-0.3-0.9-1-1.7-1.8-2.2l-9.6-5.5l-1.2,0.4c-0.1,0.1-0.3,0.1-0.5,0.1l-1.7,0.3l-0.9-1.5c-0.2-0.3-0.3-0.6-0.3-0.9l-0.1-0.8
				l0.2-0.3l1.8-3.1l14,8c1.8,0.9,3.1,2.5,3.7,4.3c0.3,0.8,0.4,1.7,0.4,2.5l-0.1,1.8l5.7,3.1c1.2,0.7,2.6,1.1,4,1.1
				c2.8,0,5.4-1.5,6.8-3.9c1-1.8,1.3-3.9,0.8-5.9c-0.5-1.9-1.7-3.6-3.4-4.6l-0.2-0.1l-30.8-14.6c-3.2-1.5-5.4-4.5-5.9-8
				c-0.5-3.4,0.7-6.7,3.2-9c0.2-0.1,0.3-0.3,0.5-0.4c1.9-1.5,4.3-2.4,6.8-2.4c3.1,0,6.1,1.3,8.2,3.7c0.3,0.3,0.5,0.6,0.7,0.9
				l0.1,0.1c3.4,4.7,8.9,7.5,14.6,7.5c3.8,0,7.4-1.2,10.5-3.4c3.2-2.3,5.7-5.7,6.8-9.5c0.5-1.7,0.8-3.5,0.8-5.2c0-1-0.1-2.1-0.3-3.1
				l-0.1-0.7l0.4-0.6c0.1-0.1,0.2-0.3,0.3-0.5l0.1-0.1c0.6-1.1,1.1-2.3,1.5-3.5l1.7-5.8l-5.5,2.5c-0.1,0.1-0.3,0.1-0.4,0.2
				c-1,0.5-1.9,1-2.8,1.7l-1,0.8l-1.1-0.7c-4.5-2.8-9.7-4.2-15.1-4.2l-2,0l-0.4-1.3c-0.3-0.9-0.6-1.8-1.1-2.7
				c-0.4-0.8-0.9-1.5-1.4-2.2l-2.3-3.1l-2.3,3.1c-1.8,2.4-2.8,5.2-3,8.1c0,0.2,0,0.4,0,0.6l-0.1,1.8h-1.6c-0.6,0-1,0.1-1.3,0.1
				c-6.2,0.6-12.1,2.7-17.4,6c-12.1,7.6-19.3,20.6-19.3,34.8c0,22.6,18.4,41,41,41c21.3,0,38.8-15.9,40.8-37l0.2-1.8l-1.6-0.9
				c-0.3-0.2-0.5-0.3-0.8-0.5c-1.4-1.1-2.3-2.7-2.5-4.6c-0.2-1.8,0.3-3.6,1.4-5c1.3-1.6,3.3-2.6,5.4-2.6c1.5,0,3,0.5,4.2,1.5
				c1.4,1.1,2.3,2.7,2.5,4.6c0.2,1.8-0.3,3.6-1.4,5c-0.6,0.7-1.3,1.4-2.2,1.8l-1.4,0.7l-0.1,1.6C-187.5-63-206.7-45.4-230.2-45.4z
				 M-187.3-97.9c-1,0-1.9,0.4-2.5,1.2c-0.5,0.7-0.8,1.5-0.7,2.3c0.1,0.8,0.5,1.6,1.2,2.1c0.5,0.4,1.2,0.7,1.9,0.7
				c1,0,1.9-0.4,2.5-1.2c0.5-0.6,0.7-1.5,0.7-2.3c-0.1-0.8-0.5-1.6-1.2-2.1C-185.9-97.7-186.6-97.9-187.3-97.9z"/>
		</g>
	</g>
</g>
<g>
	<g>
		<g>
			<linearGradient id="SVGID_4_" gradientUnits="userSpaceOnUse" x1="16.238" y1="126.9914" x2="63.2635" y2="13.7028">
				<stop  offset="0" style="stop-color:#642F87"/>
				<stop  offset="1" style="stop-color:#E62579"/>
			</linearGradient>
			<path class="st4" d="M57.2,33.9c-1.4,0-2.8-0.5-3.9-1.4c-1.1-0.9-2-2.2-2.3-3.6c-0.1-0.5,0-1,0.2-1.4c0.3-0.4,0.7-0.7,1.1-0.8
				c0.1,0,0.3,0,0.4,0c0.8,0,1.6,0.6,1.8,1.4c0.1,0.6,0.5,1.2,1,1.6c0.5,0.4,1.1,0.6,1.7,0.6c0.9,0,1.6-0.4,2.2-1
				c0.3-0.4,0.9-0.7,1.4-0.7c0.4,0,0.8,0.1,1.1,0.4c0.8,0.6,0.9,1.8,0.3,2.5C61,33,59.1,33.9,57.2,33.9z"/>
		</g>
		<g>
			<linearGradient id="SVGID_5_" gradientUnits="userSpaceOnUse" x1="30.285" y1="135.2442" x2="78.2426" y2="19.71">
				<stop  offset="0" style="stop-color:#642F87"/>
				<stop  offset="1" style="stop-color:#E62579"/>
			</linearGradient>
			<path class="st5" d="M72.8,39.2c-0.1,0-0.3,0-0.4,0c-1.7-0.1-3.2-0.9-4.4-2.2c-1-1.1-1.5-2.5-1.6-3.9c0-0.5,0.2-0.9,0.5-1.3
				c0.3-0.4,0.8-0.6,1.3-0.6c0,0,0,0,0,0c1,0,1.8,0.8,1.9,1.7c0,0.6,0.3,1.2,0.7,1.7c0.5,0.6,1.3,0.9,2,0.9c0.7,0,1.3-0.2,1.8-0.7
				c0.3-0.3,0.8-0.4,1.2-0.4c0.5,0,1,0.2,1.4,0.6c0.3,0.4,0.5,0.8,0.4,1.3c0,0.5-0.3,0.9-0.6,1.2C75.8,38.7,74.3,39.2,72.8,39.2z"/>
		</g>
		<g>
			<linearGradient id="SVGID_6_" gradientUnits="userSpaceOnUse" x1="27.5035" y1="113.9711" x2="67.3463" y2="17.9861">
				<stop  offset="0" style="stop-color:#642F87"/>
				<stop  offset="1" style="stop-color:#E62579"/>
			</linearGradient>
			<path class="st6" d="M50.3,102.7c-24.1,0-43.7-19.6-43.7-43.7c0-15.2,7.7-29.1,20.6-37.1c5.6-3.5,11.9-5.7,18.5-6.4
				c0.7-5.2,3.4-9.8,7.6-12.9l1.1-0.8l1.1,0.8c0.9,0.7,1.7,1.4,2.5,2.2c1.3,1.3,2.4,2.8,3.2,4.5c0.3,0.7,0.6,1.3,0.9,2
				c5.3,0.1,10.4,1.5,15,4.1c0.7-0.5,1.5-0.9,2.3-1.3c0.4-0.2,0.8-0.4,1.3-0.6c2.1-0.8,4.4-1.3,6.7-1.3l1.6,0l0.2,1.6
				c0.1,0.8,0.2,1.6,0.2,2.4c0,3.1-0.8,6.2-2.3,9v0l-0.1,0.1l-0.2,0.4c0.1,1,0.2,1.9,0.2,2.9c0,2.1-0.3,4.2-0.9,6.2l0,0l0,0
				c-1,3.2-2.8,6.3-5.3,8.8c-0.4,0.4-0.9,0.8-1.3,1.2c-0.4,0.4-0.9,0.7-1.4,1.1c-3.6,2.6-7.9,4-12.4,4c-6.8,0-13.2-3.3-17.2-8.8
				L48.2,41c-0.2-0.2-0.3-0.4-0.5-0.6c-1.4-1.5-3.3-2.4-5.3-2.4c-1.6,0-3.2,0.5-4.4,1.5c-0.1,0.1-0.2,0.2-0.3,0.3
				c-1.6,1.4-2.3,3.5-2,5.6c0.3,2.2,1.7,4.1,3.8,5.1l30.3,14.4l0.1,0.1c2.6,1.5,4.5,3.9,5.2,6.8c0.8,2.9,0.4,5.9-1.2,8.5
				c-2,3.4-5.7,5.6-9.7,5.6c-2,0-3.9-0.5-5.6-1.5l-5.7-3.1c-0.8,0.9-1.9,1.5-3,1.9c-0.7,0.2-1.5,0.4-2.2,0.4c-1.1,0-2.3-0.3-3.3-0.8
				l-13.8-7.7l1.8-3.2l0.1,0c0.5-0.5,1.1-0.8,1.8-0.8c0.4,0,0.8,0.1,1.2,0.3c1,0.6,1.5,1.7,1.2,2.8l9.5,5.3c0.5,0.2,1,0.4,1.6,0.4
				c1.4,0,2.6-0.8,3.2-2c0.9-1.8,0.2-4-1.6-4.9l-9.7-5.5c-0.5,0.5-1.1,0.7-1.8,0.7c-0.4,0-0.8-0.1-1.2-0.3c-1-0.6-1.5-1.7-1.2-2.8
				l-0.1,0l0.3-0.5l1.5-2.7L51,69.9c1.7,0.9,3,2.4,3.5,4.2c0.4,1.3,0.5,2.7,0.1,4.1l5.7,3.1c1.2,0.7,2.5,1.1,3.9,1.1
				c2.7,0,5.2-1.4,6.6-3.8c1-1.8,1.3-3.8,0.8-5.8c-0.5-2-1.8-3.6-3.5-4.6L37.9,53.9c-3.1-1.5-5.3-4.4-5.8-7.9
				c-0.5-3.4,0.7-6.6,3.2-8.8c0.2-0.1,0.3-0.3,0.5-0.4c1.9-1.5,4.3-2.3,6.7-2.3c3.1,0,6,1.3,8,3.6c0.3,0.3,0.5,0.6,0.7,0.9l0.1,0.1
				c3.3,4.6,8.7,7.3,14.3,7.3c3.7,0,7.3-1.1,10.3-3.3c3.2-2.3,5.5-5.6,6.6-9.3c0.5-1.7,0.8-3.4,0.8-5.1c0-1-0.1-2-0.3-3l-0.1-0.7
				l0.4-0.6c0.1-0.2,0.2-0.3,0.3-0.5l0.1-0.1c1.3-2.3,2-4.9,2-7.6c0-0.1,0-0.2,0-0.3c-1.3,0.2-2.5,0.5-3.7,0.9
				c-0.4,0.2-0.7,0.3-1,0.4c-1,0.5-1.9,1-2.7,1.6l-1,0.8L76.1,19c-4.4-2.7-9.5-4.2-14.8-4.2l-2,0L59,13.5c-0.3-0.9-0.6-1.8-1.1-2.7
				c-0.7-1.3-1.6-2.5-2.6-3.6c-0.3-0.3-0.6-0.6-1-0.9c-3,2.6-4.9,6.3-5.2,10.3c0,0.2,0,0.4,0,0.6l-0.1,1.7h-1.7
				C47,19,46.5,19,46.2,19c-6.1,0.6-11.8,2.6-17.1,5.9c-11.8,7.4-18.9,20.1-18.9,34c0,22.1,18,40.1,40.1,40.1
				c21.6,0,39.1-16.8,40.1-38.2c-0.8-0.2-1.6-0.6-2.3-1.2c-2.9-2.3-3.4-6.5-1.1-9.4c1.3-1.6,3.2-2.5,5.3-2.5c1.5,0,2.9,0.5,4.1,1.4
				c2.9,2.3,3.4,6.5,1.1,9.4c-0.9,1.1-2.1,1.9-3.5,2.3C93,84.3,73.9,102.7,50.3,102.7z M92.3,51.3c-0.9,0-1.8,0.4-2.4,1.2
				c-0.5,0.6-0.7,1.4-0.6,2.3c0.1,0.8,0.5,1.5,1.1,2.1c0.5,0.4,1.2,0.7,1.9,0.7c0.9,0,1.8-0.4,2.4-1.2c1-1.3,0.8-3.3-0.5-4.3
				C93.6,51.6,93,51.3,92.3,51.3z"/>
		</g>
	</g>
</g>
<g>
	<path d="M332.6-135.6c0,1.3-1.8,4.4-2.7,4.4c-1.3,0-4.4-3.2-11-3.2c-6.3,0-10.8,3.3-10.8,9.5c0,6.1,5.4,7.7,11.4,10
		c7.5,2.8,15.8,6.2,15.8,17.6c0,10-7.3,16.2-18.6,16.2c-9.8,0-17.3-3.9-17.3-6.1c0-1.3,2-4.5,2.9-4.5c1.1,0,5.8,4.3,14.4,4.3
		c6.4,0,11-3.9,11-9.9c0-6.7-6.2-8.9-12.6-11.4c-7.1-2.8-14.6-5.5-14.6-16.5c0-9,7.4-15.5,18.6-15.5
		C323.9-140.7,332.6-138.6,332.6-135.6z"/>
	<path d="M353.7-138.5v55.3c0,1.2-1,1.8-3.3,1.8h-0.7c-2.3,0-3.3-0.7-3.3-1.8v-55.3c0-1.2,1-1.8,3.3-1.8h0.7
		C352.7-140.3,353.7-139.7,353.7-138.5z"/>
	<path d="M392-139l19.8,55.1c0.2,0.4,0.3,0.8,0.3,1.1c0,0.8-1.1,1.4-3.6,1.4h-0.7c-1.7,0-3-0.3-3.3-1.3l-4.9-13.7H375l-4.8,13.7
		c-0.3,1-1.7,1.3-3.3,1.3h-0.4c-2.5,0-3.6-0.5-3.6-1.4c0-0.3,0.1-0.7,0.3-1.2l19.8-55c0.3-1,1.7-1.3,3.3-1.3h2.4
		C390.4-140.3,391.7-140,392-139z M387.4-132.6c-0.3,1.6-0.7,3.3-1.3,4.9l-8.8,24.9h20l-8.8-24.9c-0.5-1.5-0.8-3.3-1-4.9H387.4z"/>
	<path d="M476.2-138.5v55.3c0,1.2-1,1.8-3.3,1.8h-0.6c-2.3,0-3.3-0.7-3.3-1.8v-45l-0.2,0.3l-16.7,29c-0.4,0.8-0.9,1.1-1.8,1.1h-3.3
		c-0.8,0-1.4-0.3-1.8-1.1l-16.9-29.5l-0.2-0.3v45.5c0,1.2-1,1.8-3.3,1.8H424c-2.3,0-3.3-0.7-3.3-1.8v-55.3c0-1.2,1-1.8,3.3-1.8h3
		c2,0,3,0.6,3.5,1.5l15.8,27.5l2.2,5.3l2.2-4.8l15.8-28c0.5-0.9,1.5-1.5,3.5-1.5h2.8C475.2-140.3,476.2-139.7,476.2-138.5z"/>
	<path d="M540.1-111c0,19.6-9,30-25.9,30c-16.7,0-25.8-10.4-25.8-30s9-29.6,25.8-29.6C531.1-140.7,540.1-130.6,540.1-111z
		 M496.1-111c0,15.4,6.4,23.6,18.2,23.6c11.8,0,18.2-8.2,18.2-23.6s-6.4-23.3-18.2-23.3C502.5-134.3,496.1-126.4,496.1-111z"/>
	<path d="M560.4-138.5v55.3c0,1.2-1,1.8-3.3,1.8h-0.7c-2.3,0-3.3-0.7-3.3-1.8v-55.3c0-1.2,1-1.8,3.3-1.8h0.7
		C559.4-140.3,560.4-139.7,560.4-138.5z"/>
	<path d="M604.8-135.6c0,1.3-1.8,4.4-2.7,4.4c-1.3,0-4.4-3.2-11-3.2c-6.3,0-10.8,3.3-10.8,9.5c0,6.1,5.4,7.7,11.4,10
		c7.5,2.8,15.8,6.2,15.8,17.6c0,10-7.3,16.2-18.6,16.2c-9.8,0-17.3-3.9-17.3-6.1c0-1.3,2-4.5,2.9-4.5c1.1,0,5.8,4.3,14.4,4.3
		c6.4,0,11-3.9,11-9.9c0-6.7-6.2-8.9-12.6-11.4c-7.1-2.8-14.6-5.5-14.6-16.5c0-9,7.4-15.5,18.6-15.5
		C596.1-140.7,604.8-138.6,604.8-135.6z"/>
</g>
<g>
	<path d="M109.3,71.9l4.8-8.5c4.8,3.7,9.7,5,14.3,5c5.8,0,8.9-1.6,8.9-4.8c0-3.5-3.9-4.9-9.8-6.5l-2.7-0.7
		c-9.4-2.5-16.1-6.4-16.1-15.3c0-10.2,8.2-17,20.6-17c6.6,0,13,1.9,18.6,6.1l-5.5,8.8c-4-3-8.1-4.5-13-4.5c-4.7,0-7.7,1.7-7.7,4.5
		c0,3.3,3.8,4.6,8.8,5.9l2.7,0.8c8.6,2.3,17.1,7.1,17.1,16.7c0,9.9-8.5,16.4-21.2,16.4C121.5,78.8,114.5,76.3,109.3,71.9z"/>
	<path d="M159,24.8h12.7v53.3H159V24.8z"/>
	<path d="M231,45.5v32.5h-12.7V63.8h-22.8v14.3h-12.7V45.5c0-12.9,9.6-21.5,24.1-21.5C221.3,24.1,231,32.6,231,45.5z M218.3,53.4V46
		c0-6.9-4.5-11.5-11.3-11.5c-7,0-11.5,4.6-11.5,11.5v7.3H218.3z"/>
	<path d="M291.9,78.1l-1.9-32.3l-14.3,32.3H269l-14.2-32.2L253,78.1h-12.7l3.8-53.4h14l14.3,32.5l14.3-32.5h14.1l3.7,53.4H291.9z"/>
	<path d="M311.4,51.4c0-16.4,11.5-27.4,28.8-27.4c17.1,0,28.6,10.9,28.6,27.4c0,16.4-11.5,27.4-28.6,27.4
		C322.9,78.8,311.4,67.8,311.4,51.4z M355.7,51.4c0-10.2-6.3-16.9-15.6-16.9c-9.4,0-15.7,6.8-15.7,16.9s6.3,16.9,15.7,16.9
		C349.5,68.3,355.7,61.6,355.7,51.4z"/>
	<path d="M377.3,24.8H390v53.3h-12.7V24.8z"/>
	<path d="M399.9,71.9l4.8-8.5c4.8,3.7,9.7,5,14.3,5c5.8,0,8.9-1.6,8.9-4.8c0-3.5-3.9-4.9-9.8-6.5l-2.7-0.7
		c-9.4-2.5-16.1-6.4-16.1-15.3c0-10.2,8.2-17,20.6-17c6.6,0,13,1.9,18.6,6.1l-5.5,8.8c-4-3-8.1-4.5-13-4.5c-4.7,0-7.7,1.7-7.7,4.5
		c0,3.3,3.8,4.6,8.8,5.9l2.7,0.8c8.6,2.3,17.1,7.1,17.1,16.7c0,9.9-8.5,16.4-21.2,16.4C412,78.8,405,76.3,399.9,71.9z"/>
</g>
<text transform="matrix(1 0 0 1 -97.4731 -57.9419)" style="font-family:'BwModelicaSS01-ExtraBold'; font-size:72px;">SIAMOIS</text>
</svg>
