<?xml version="1.0" encoding="utf-8"?>
<!-- Generator: Adobe Illustrator 21.1.0, SVG Export Plug-In . SVG Version: 6.00 Build 0)  -->
<svg version="1.1" id="Layer_1" xmlns="http://www.w3.org/2000/svg" xmlns:xlink="http://www.w3.org/1999/xlink" x="0px" y="0px"
	 viewBox="0 0 327.9 104.6" style="enable-background:new 0 0 327.9 104.6;" xml:space="preserve">
<style type="text/css">
	.st0{fill:#FFFFFF;}
	.st1{fill:url(#SVGID_1_);}
	.st2{fill:url(#SVGID_2_);}
	.st3{fill:url(#SVGID_3_);}
	.st4{fill:url(#SVGID_4_);}
	.st5{fill:url(#SVGID_5_);}
	.st6{fill:url(#SVGID_6_);}
	.st7{fill:url(#SVGID_7_);}
	.st8{fill:url(#SVGID_8_);}
	.st9{fill:url(#SVGID_9_);}
	.st10{fill:url(#SVGID_10_);}
	.st11{fill:url(#SVGID_11_);}
	.st12{fill:url(#SVGID_12_);}
	.st13{fill:url(#SVGID_13_);}
</style>
<title>logo-white</title>
<g>
	<path class="st0" d="M166.1,51.5c0,14.4-10.7,24.5-26.2,24.5h-20.4V27h20.8C155.5,27,166.1,37,166.1,51.5z M154.8,51.5
		c0-9-6.3-15.3-14.7-15.3h-9.5v30.4h10C148.8,66.7,154.8,60.5,154.8,51.5z"/>
	<path class="st0" d="M223.4,51.5c0,14.1-11.3,25-26.3,25s-26.3-10.8-26.3-25c0-14.3,11.3-24.9,26.3-24.9S223.4,37.3,223.4,51.5z
		 M182.1,51.5c0,8.6,6.9,15.3,15.1,15.3c8.2,0,14.8-6.7,14.8-15.3s-6.7-15.2-14.8-15.2C188.9,36.3,182.1,42.9,182.1,51.5z"/>
	<path class="st0" d="M260.8,76L253,62h-1h-10.2v14h-11.1V27H252c12.8,0,20.1,6.2,20.1,17c0,7.6-3.2,13-9.2,15.8L273.3,76H260.8z
		 M241.7,52.7h10.2c6.1,0,9.6-2.8,9.6-8.4c0-5.5-3.5-8.2-9.6-8.2h-10.2V52.7z"/>
	<path class="st0" d="M318.6,27v9.2h-26.3v10.6H316V56h-23.6v10.9h27V76h-38.1V27H318.6z"/>
</g>
<g>
	<g>
		<g>
			<path class="st0" d="M55.6,33.2c-1.7,0-3.5-0.6-4.8-1.7c-1.4-1.1-2.4-2.7-2.8-4.4c-0.4-1.6,0.7-3.2,2.3-3.6
				c0.2,0,0.4-0.1,0.7-0.1c1.4,0,2.6,1,2.9,2.4c0.1,0.4,0.3,0.8,0.6,1c0.4,0.3,0.8,0.4,1.1,0.4c0.6,0,1.1-0.2,1.4-0.7
				c0.6-0.7,1.4-1.1,2.4-1.1c0.7,0,1.3,0.2,1.9,0.6c1.3,1,1.5,2.9,0.5,4.2C60.2,32.1,58,33.2,55.6,33.2z"/>
		</g>
		<g>
			<path class="st0" d="M72.1,38.8c-0.2,0-0.4,0-0.5,0c-2.1-0.1-4-1.1-5.3-2.6c-1.2-1.3-1.9-3.1-1.9-4.8c-0.1-1.7,1.2-3.1,2.9-3.1
				l0.1,0c1.6,0,2.9,1.3,3,2.9c0,0.4,0.2,0.8,0.4,1.1c0.3,0.4,0.8,0.6,1.3,0.6c0.4,0,0.8-0.2,1.2-0.4c0.5-0.5,1.3-0.7,2-0.7
				c0.9,0,1.7,0.4,2.3,1c0.5,0.6,0.8,1.4,0.7,2.2c-0.1,0.8-0.4,1.5-1,2.1C75.7,38.2,73.9,38.8,72.1,38.8z"/>
		</g>
		<g>
			<path class="st0" d="M48.4,105.6c-26,0-47.1-21.1-47.1-47.1c0-16.4,8.3-31.3,22.2-40c5.8-3.6,12.2-5.9,19-6.8
				c0.9-5.4,3.9-10.2,8.3-13.5L52.6-3l1.8,1.3c1,0.7,1.9,1.5,2.8,2.4c1.4,1.5,2.6,3.1,3.6,5c0.3,0.5,0.5,1,0.7,1.5
				c5.2,0.2,10.4,1.6,15,4.1c0.6-0.4,1.3-0.8,2-1.1c0.4-0.2,0.9-0.4,1.4-0.6c2.4-0.9,4.9-1.4,7.4-1.4l2.7,0l0.3,2.7
				c0.1,0.9,0.2,1.8,0.2,2.7c0,3.4-0.8,6.7-2.4,9.7v0l-0.3,0.5c0.1,0.9,0.2,1.9,0.2,2.8c0,2.3-0.3,4.6-1,6.8c-1.1,3.7-3.1,7-5.9,9.8
				c-0.5,0.5-1,0.9-1.4,1.3c-0.5,0.4-1,0.8-1.5,1.2c-4,2.9-8.7,4.4-13.7,4.4c-7.5,0-14.6-3.6-19-9.7l-0.1-0.1
				c-0.1-0.2-0.3-0.4-0.4-0.5c-1.2-1.4-3-2.1-4.8-2.1c-1.5,0-2.8,0.5-4,1.4c-0.1,0.1-0.2,0.2-0.3,0.2c-1.4,1.2-2,3-1.7,4.9
				c0.3,2,1.5,3.7,3.3,4.5l31.9,15.1l0.2,0.1c3,1.8,5.2,4.6,6,7.9c0.9,3.3,0.4,6.8-1.3,9.8c-2.3,4-6.6,6.4-11.2,6.4
				c-2.3,0-4.5-0.6-6.5-1.7l-5.3-2.9c-0.9,0.8-1.9,1.3-3,1.7c-0.9,0.3-1.8,0.4-2.7,0.4c-1.4,0-2.7-0.3-4-1l-15.5-8.6l2.9-5.3
				l0.4,0.2c0.6-0.4,1.3-0.6,2-0.6c0.6,0,1.2,0.2,1.8,0.5c1.2,0.7,1.9,2,1.9,3.3l9.3,5.2c0.3,0.2,0.7,0.3,1.1,0.3c1,0,2-0.6,2.4-1.5
				c0.3-0.6,0.4-1.4,0.2-2.1c-0.2-0.7-0.7-1.2-1.3-1.6l-9.6-5.5c-0.6,0.4-1.2,0.6-1.9,0.6c-0.6,0-1.2-0.2-1.8-0.5
				c-1.2-0.7-1.9-1.9-1.9-3.2l-0.4-0.2l3-5.3l15.4,8.8c2,1,3.5,2.8,4.2,5c0.4,1.3,0.5,2.7,0.3,4l5.3,2.9c1.1,0.6,2.3,1,3.5,1
				c2.5,0,4.7-1.3,6-3.4c0.9-1.6,1.2-3.5,0.7-5.2c-0.5-1.8-1.6-3.2-3.1-4.2l-31.8-15c-3.6-1.7-6.1-5.1-6.7-9.1
				c-0.6-3.9,0.8-7.7,3.7-10.3c0.2-0.2,0.4-0.3,0.6-0.5c2.2-1.7,4.9-2.7,7.7-2.7c3.5,0,6.9,1.5,9.3,4.1c0.3,0.3,0.6,0.7,0.8,1
				l0.1,0.1c3.3,4.5,8.6,7.2,14.2,7.2c3.7,0,7.2-1.1,10.2-3.3c3.1-2.2,5.5-5.5,6.6-9.2c0.5-1.6,0.7-3.3,0.7-5.1c0-1-0.1-2-0.3-3
				l-0.2-1.2l0.6-1c0.1-0.1,0.2-0.3,0.3-0.4l0.1-0.1c1.1-2,1.8-4.2,2-6.5c-0.8,0.2-1.6,0.4-2.4,0.7c-0.4,0.1-0.7,0.3-1,0.4
				c-0.9,0.4-1.8,1-2.6,1.6l-1.6,1.3L75,17.4c-4.5-2.8-9.6-4.2-14.9-4.2c-0.2,0-1.7,0-1.7,0l-1.3,0l-0.7-2.2c-0.3-0.9-0.6-1.8-1-2.6
				c-0.7-1.3-1.5-2.5-2.5-3.5c-0.1-0.1-0.1-0.1-0.2-0.2c-2.5,2.5-4.1,5.8-4.4,9.4c0,0.2,0,0.4,0,0.6l-0.1,2.9h-2.9
				c-0.3,0-0.8,0.1-1.2,0.1c-6.2,0.6-12.1,2.7-17.5,6C14.5,31.2,7.3,44.2,7.3,58.5c0,22.7,18.4,41.1,41.1,41.1
				c21.8,0,39.6-16.7,41-38.4c-0.7-0.3-1.3-0.7-1.9-1.1c-3.5-2.8-4.1-7.9-1.3-11.4c1.6-2,3.9-3.1,6.4-3.1c1.8,0,3.6,0.6,5,1.7
				c3.5,2.8,4.1,7.9,1.3,11.4c-0.9,1.1-2.1,2-3.5,2.5c-0.7,11.8-5.7,22.7-14.3,31C72.3,100.9,60.7,105.6,48.4,105.6z M92.5,51.6
				c-0.7,0-1.3,0.3-1.7,0.8c-0.7,0.9-0.6,2.3,0.4,3c0.4,0.3,0.8,0.5,1.3,0.5c0.7,0,1.3-0.3,1.7-0.8c0.7-0.9,0.6-2.3-0.4-3
				C93.4,51.7,93,51.6,92.5,51.6z"/>
		</g>
	</g>
</g>
<g>
	<g>
		<g>
			<linearGradient id="SVGID_1_" gradientUnits="userSpaceOnUse" x1="-36.9967" y1="-14.4466" x2="30.0909" y2="-176.0667">
				<stop  offset="0" style="stop-color:#2360B1"/>
				<stop  offset="0.25" style="stop-color:#256FBF"/>
				<stop  offset="0.5594" style="stop-color:#2360B1"/>
				<stop  offset="0.8" style="stop-color:#A02D6E"/>
				<stop  offset="0.9" style="stop-color:#F3506F"/>
				<stop  offset="1" style="stop-color:#FCB450"/>
			</linearGradient>
			<path class="st1" d="M21.1-147.3c-1.8,0-3.5-0.6-4.9-1.7c-1.4-1.1-2.4-2.7-2.8-4.5c-0.2-0.8,0-1.7,0.4-2.5c0.5-0.7,1.2-1.2,2-1.4
				c0.2-0.1,0.5-0.1,0.7-0.1c1.5,0,2.8,1.1,3.2,2.5l0.7,2.9l1.8-2.4c0.6-0.8,1.5-1.2,2.5-1.2c0.7,0,1.4,0.2,2,0.7
				c0.7,0.5,1.1,1.3,1.2,2.2s-0.1,1.7-0.7,2.4C25.8-148.4,23.5-147.3,21.1-147.3z"/>
		</g>
		<g>
			<linearGradient id="SVGID_2_" gradientUnits="userSpaceOnUse" x1="-24.941" y1="-0.4618" x2="45.621" y2="-170.4522">
				<stop  offset="0" style="stop-color:#2360B1"/>
				<stop  offset="0.25" style="stop-color:#256FBF"/>
				<stop  offset="0.5594" style="stop-color:#2360B1"/>
				<stop  offset="0.8" style="stop-color:#A02D6E"/>
				<stop  offset="0.9" style="stop-color:#F3506F"/>
				<stop  offset="1" style="stop-color:#FCB450"/>
			</linearGradient>
			<path class="st2" d="M37.1-141.9c-0.2,0-0.4,0-0.5,0c-2.1-0.1-4-1.1-5.4-2.7c-1.2-1.4-1.9-3.1-1.9-4.9c-0.1-1.8,1.3-3.3,3.1-3.4
				l0.1,0c1.8,0,3.2,1.4,3.3,3.1l0.1,3.2l2.3-2.3c0.5-0.5,1.2-0.8,2-0.8c0.9,0,1.8,0.4,2.5,1.1c1.2,1.4,1,3.4-0.3,4.6
				C40.8-142.6,39-141.9,37.1-141.9z"/>
		</g>
		<g>
			<linearGradient id="SVGID_3_" gradientUnits="userSpaceOnUse" x1="-9.968" y1="-65.0966" x2="32.007" y2="-166.2182">
				<stop  offset="0" style="stop-color:#2360B1"/>
				<stop  offset="0.25" style="stop-color:#256FBF"/>
				<stop  offset="0.5594" style="stop-color:#2360B1"/>
				<stop  offset="0.8" style="stop-color:#A02D6E"/>
				<stop  offset="0.9" style="stop-color:#F3506F"/>
				<stop  offset="1" style="stop-color:#FCB450"/>
			</linearGradient>
			<path class="st3" d="M14.1-77C-11.3-77-32-97.7-32-123.1c0-16,8.1-30.6,21.7-39.1c5.4-3.4,11.2-5.5,17.4-6.5l1-0.1l0.2-0.9
				c1.1-4.9,4-9.2,8-12.1l1.9-1.4l1.9,1.4c1,0.7,1.9,1.5,2.7,2.4c1.4,1.5,2.6,3.1,3.5,4.9c0.1,0.2,0.2,0.4,0.3,0.5l0.4,0.7l0.8,0.1
				c4.4,0.3,8.9,1.5,12.8,3.5l0.7,0.3l0.7-0.4c0.4-0.2,0.8-0.4,1.2-0.6c0.4-0.2,0.8-0.4,1.4-0.6c2.4-0.9,4.8-1.4,7.3-1.4l2.9,0
				l0.4,2.9c0.1,0.9,0.2,1.8,0.2,2.7c0,3.2-0.7,6.4-2.2,9.2l-0.4,0.8l0,0.4c0.1,0.7,0.1,1.5,0.1,2.3c0,2.3-0.3,4.5-1,6.7
				c-1.1,3.6-3.1,6.9-5.8,9.7c-0.5,0.5-0.9,0.9-1.4,1.3c-0.5,0.4-1,0.8-1.5,1.2c-4,2.8-8.6,4.3-13.5,4.3c-7.4,0-14.4-3.6-18.7-9.5
				l-0.1-0.2c-0.1-0.2-0.2-0.3-0.3-0.4c-1.1-1.3-2.7-2-4.4-2c-1.3,0-2.6,0.4-3.6,1.3c-0.1,0.1-0.2,0.2-0.3,0.2
				c-1.3,1.1-1.8,2.8-1.6,4.5c0.3,1.8,1.4,3.4,3.1,4.1l31.1,14.7l0.2,0.1c2.9,1.7,5.1,4.5,6,7.8c0.9,3.3,0.4,6.8-1.3,9.8
				c-2.3,4-6.6,6.4-11.2,6.4c-2.3,0-4.5-0.6-6.5-1.7L17-98.5L16.3-98c-0.7,0.5-1.4,0.8-2.2,1.1c-0.9,0.3-1.8,0.4-2.7,0.4
				c-1.4,0-2.8-0.3-4-1L-8-106.1l3.1-5.6l0.4,0.2l0.6-0.2c0.3-0.1,0.6-0.2,0.9-0.3l2-0.3l-1-1.8c-0.2-0.4-0.4-0.9-0.5-1.4l-0.1-0.6
				l-0.4-0.2l0.6-1.2l2.5-4.4l15.2,8.7c2.1,1.1,3.6,2.9,4.3,5.1c0.3,1,0.5,2,0.4,3l0,0.9l4.9,2.7c1,0.6,2.1,0.9,3.3,0.9
				c2.3,0,4.4-1.2,5.5-3.2c0.9-1.5,1.1-3.2,0.7-4.8c-0.4-1.6-1.4-2.9-2.8-3.8l-0.1,0L0.8-127c-3.6-1.7-6.1-5.1-6.7-9.1
				c-0.6-3.9,0.8-7.7,3.7-10.3c0.2-0.2,0.4-0.3,0.6-0.5c2.2-1.7,4.9-2.7,7.7-2.7c3.5,0,6.9,1.5,9.3,4.1c0.3,0.4,0.6,0.7,0.8,1
				l0.1,0.1c3.1,4.3,8.2,6.9,13.5,6.9c3.5,0,6.9-1.1,9.7-3.1c3-2.1,5.2-5.2,6.3-8.7c0.5-1.6,0.7-3.2,0.7-4.8c0-1-0.1-1.9-0.2-2.8
				l-0.2-1.3l0.7-1.1c0.1-0.1,0.2-0.3,0.3-0.4l0.1-0.1c0.6-1,1-2.1,1.3-3.2l0.8-2.9l-2.8,1.2c-0.1,0.1-0.2,0.1-0.3,0.2
				c-0.9,0.4-1.7,0.9-2.5,1.5l-1.8,1.4l-1.9-1.2c-4.3-2.6-9.3-4-14.3-4c-0.2,0-1.6,0-1.6,0l-1.5,0l-0.8-2.3c-0.3-0.9-0.6-1.7-1-2.5
				c-0.4-0.7-0.8-1.4-1.2-2l-1.1-1.5l-1.1,1.5c-1.6,2.2-2.6,4.7-2.8,7.3c0,0.2,0,0.4,0,0.5l-0.1,3.1h-3c-0.5,0-0.8,0.1-1.2,0.1
				c-6,0.6-11.7,2.6-16.8,5.8c-11.7,7.3-18.6,19.9-18.6,33.6c0,21.8,17.8,39.6,39.6,39.6c20.5,0,37.5-15.4,39.4-35.8l0.1-0.9
				l-0.8-0.5c-0.3-0.2-0.7-0.4-1-0.7c-3.6-2.8-4.2-8-1.4-11.6c1.6-2,3.9-3.1,6.5-3.1c1.9,0,3.6,0.6,5.1,1.8c3.6,2.8,4.2,8,1.4,11.6
				c-0.7,0.9-1.6,1.6-2.6,2.2l-0.7,0.4l-0.1,0.8C58.1-95.2,38.4-77,14.1-77z M2.7-112.3c-0.2,0.1-0.5,0.1-0.7,0.2l-2,0.3l1,1.8
				c0.2,0.4,0.4,0.8,0.5,1.2l0.1,0.7l8.8,4.9l0.1,0c0.3,0.1,0.6,0.2,0.9,0.2c0.9,0,1.7-0.5,2.1-1.3c0.3-0.5,0.3-1.2,0.1-1.8
				c-0.2-0.6-0.6-1.1-1.1-1.3l-9.1-5.2L2.7-112.3z M57-129.5c-0.5,0-1,0.2-1.4,0.7c-0.3,0.4-0.4,0.8-0.4,1.3
				c0.1,0.5,0.3,0.9,0.6,1.2c0.3,0.2,0.7,0.4,1.1,0.4c0.5,0,1-0.2,1.4-0.7c0.3-0.4,0.4-0.8,0.4-1.3c-0.1-0.5-0.3-0.9-0.6-1.2
				C57.7-129.4,57.4-129.5,57-129.5z"/>
		</g>
	</g>
</g>
<g>
	
		<linearGradient id="SVGID_4_" gradientUnits="userSpaceOnUse" x1="119.3051" y1="255.8776" x2="168.3528" y2="183.1614" gradientTransform="matrix(1 0 0 -1 0 103.91)">
		<stop  offset="0" style="stop-color:#2360B1"/>
		<stop  offset="0.25" style="stop-color:#256FBF"/>
		<stop  offset="0.5594" style="stop-color:#2360B1"/>
		<stop  offset="0.8" style="stop-color:#A02D6E"/>
		<stop  offset="0.9" style="stop-color:#F3506F"/>
		<stop  offset="1" style="stop-color:#FCB450"/>
	</linearGradient>
	<path class="st4" d="M150.4-90.1l7.5,14c5.9-3.7,11.7-7.5,17.4-11.5l-23.5-4.3C150.3-92.2,149.7-91.4,150.4-90.1z"/>
	
		<linearGradient id="SVGID_5_" gradientUnits="userSpaceOnUse" x1="96.7179" y1="240.6424" x2="145.7657" y2="167.9261" gradientTransform="matrix(1 0 0 -1 0 103.91)">
		<stop  offset="0" style="stop-color:#2360B1"/>
		<stop  offset="0.25" style="stop-color:#256FBF"/>
		<stop  offset="0.5594" style="stop-color:#2360B1"/>
		<stop  offset="0.8" style="stop-color:#A02D6E"/>
		<stop  offset="0.9" style="stop-color:#F3506F"/>
		<stop  offset="1" style="stop-color:#FCB450"/>
	</linearGradient>
	<path class="st5" d="M142.1-93.7c-0.3-0.1-1.4,0.6-2.6,1.5l-16.3,12.1c-1.7,12.3,8.6,19.3,22.4,11.2c2.6-1.5,5.2-3,7.8-4.5
		l-9.5-17.9C143.1-92.6,142.4-93.7,142.1-93.7z"/>
	
		<linearGradient id="SVGID_6_" gradientUnits="userSpaceOnUse" x1="154.1673" y1="279.3925" x2="203.2151" y2="206.6762" gradientTransform="matrix(1 0 0 -1 0 103.91)">
		<stop  offset="0" style="stop-color:#2360B1"/>
		<stop  offset="0.25" style="stop-color:#256FBF"/>
		<stop  offset="0.5594" style="stop-color:#2360B1"/>
		<stop  offset="0.8" style="stop-color:#A02D6E"/>
		<stop  offset="0.9" style="stop-color:#F3506F"/>
		<stop  offset="1" style="stop-color:#FCB450"/>
	</linearGradient>
	<path class="st6" d="M188.6-128.8l-9.6,7.1c-1.2,0.9-1.3,2.4-0.2,3.4l16.2,16.2c10.1-7.5,11.5-17.7,4.9-26.3l-6.5-1.4
		C191.9-130.1,189.8-129.7,188.6-128.8z"/>
	
		<linearGradient id="SVGID_7_" gradientUnits="userSpaceOnUse" x1="129.2445" y1="262.5818" x2="178.2922" y2="189.8657" gradientTransform="matrix(1 0 0 -1 0 103.91)">
		<stop  offset="0" style="stop-color:#2360B1"/>
		<stop  offset="0.25" style="stop-color:#256FBF"/>
		<stop  offset="0.5594" style="stop-color:#2360B1"/>
		<stop  offset="0.8" style="stop-color:#A02D6E"/>
		<stop  offset="0.9" style="stop-color:#F3506F"/>
		<stop  offset="1" style="stop-color:#FCB450"/>
	</linearGradient>
	<path class="st7" d="M174.6-115.1c-1-1-2.8-1.1-4-0.3l-21.2,15.8c-1.2,0.9-0.9,1.8,0.5,2l31.3,5.8c3.2-2.3,6.4-4.7,9.6-7.2
		L174.6-115.1z"/>
	
		<linearGradient id="SVGID_8_" gradientUnits="userSpaceOnUse" x1="147.0965" y1="274.6232" x2="196.1441" y2="201.907" gradientTransform="matrix(1 0 0 -1 0 103.91)">
		<stop  offset="0" style="stop-color:#2360B1"/>
		<stop  offset="0.25" style="stop-color:#256FBF"/>
		<stop  offset="0.5594" style="stop-color:#2360B1"/>
		<stop  offset="0.8" style="stop-color:#A02D6E"/>
		<stop  offset="0.9" style="stop-color:#F3506F"/>
		<stop  offset="1" style="stop-color:#FCB450"/>
	</linearGradient>
	<path class="st8" d="M181.4-132.4l-18.7-4.1c-1.4-0.3-1.7,0.3-0.7,1.3l9.4,9.4c1,1,2.8,1.1,4,0.3l6.5-4.8
		C183-131.1,182.8-132.1,181.4-132.4z"/>
	
		<linearGradient id="SVGID_9_" gradientUnits="userSpaceOnUse" x1="127.5736" y1="261.4548" x2="176.6213" y2="188.7385" gradientTransform="matrix(1 0 0 -1 0 103.91)">
		<stop  offset="0" style="stop-color:#2360B1"/>
		<stop  offset="0.25" style="stop-color:#256FBF"/>
		<stop  offset="0.5594" style="stop-color:#2360B1"/>
		<stop  offset="0.8" style="stop-color:#A02D6E"/>
		<stop  offset="0.9" style="stop-color:#F3506F"/>
		<stop  offset="1" style="stop-color:#FCB450"/>
	</linearGradient>
	<path class="st9" d="M144.5-145.2l-19.7-19.7c-2.4,4-2.6,10.1,0.6,17l18.4,4C145.2-143.6,145.5-144.2,144.5-145.2z"/>
	
		<linearGradient id="SVGID_10_" gradientUnits="userSpaceOnUse" x1="106.4198" y1="247.1865" x2="155.4675" y2="174.4702" gradientTransform="matrix(1 0 0 -1 0 103.91)">
		<stop  offset="0" style="stop-color:#2360B1"/>
		<stop  offset="0.25" style="stop-color:#256FBF"/>
		<stop  offset="0.5594" style="stop-color:#2360B1"/>
		<stop  offset="0.8" style="stop-color:#A02D6E"/>
		<stop  offset="0.9" style="stop-color:#F3506F"/>
		<stop  offset="1" style="stop-color:#FCB450"/>
	</linearGradient>
	<path class="st10" d="M138.2-101.8l-8.6-16.2c0,5.5-0.4,11-1.2,16.4l8.4,1.6C138.3-99.7,138.9-100.6,138.2-101.8z"/>
	
		<linearGradient id="SVGID_11_" gradientUnits="userSpaceOnUse" x1="147.2243" y1="274.7094" x2="196.272" y2="201.9931" gradientTransform="matrix(1 0 0 -1 0 103.91)">
		<stop  offset="0" style="stop-color:#2360B1"/>
		<stop  offset="0.25" style="stop-color:#256FBF"/>
		<stop  offset="0.5594" style="stop-color:#2360B1"/>
		<stop  offset="0.8" style="stop-color:#A02D6E"/>
		<stop  offset="0.9" style="stop-color:#F3506F"/>
		<stop  offset="1" style="stop-color:#FCB450"/>
	</linearGradient>
	<path class="st11" d="M158.4-140.7l26.5,5.7c1.4,0.3,3.5-0.1,4.7-1l0.9-0.7c-14.5-11-28.9-21-45-29.8c-6.9-4.1-12.9-4.3-17-2
		l25.5,25.4C155-142.1,157-141,158.4-140.7z"/>
	
		<linearGradient id="SVGID_12_" gradientUnits="userSpaceOnUse" x1="98.3222" y1="241.7245" x2="147.3699" y2="169.0082" gradientTransform="matrix(1 0 0 -1 0 103.91)">
		<stop  offset="0" style="stop-color:#2360B1"/>
		<stop  offset="0.25" style="stop-color:#256FBF"/>
		<stop  offset="0.5594" style="stop-color:#2360B1"/>
		<stop  offset="0.8" style="stop-color:#A02D6E"/>
		<stop  offset="0.9" style="stop-color:#F3506F"/>
		<stop  offset="1" style="stop-color:#FCB450"/>
	</linearGradient>
	<path class="st12" d="M132-95.6l-4.4-0.8c-0.5,2.7-1.1,5.3-1.9,7.9l6.7-5C133.6-94.4,133.4-95.3,132-95.6z"/>
	
		<linearGradient id="SVGID_13_" gradientUnits="userSpaceOnUse" x1="125.9963" y1="260.391" x2="175.044" y2="187.6747" gradientTransform="matrix(1 0 0 -1 0 103.91)">
		<stop  offset="0" style="stop-color:#2360B1"/>
		<stop  offset="0.25" style="stop-color:#256FBF"/>
		<stop  offset="0.5594" style="stop-color:#2360B1"/>
		<stop  offset="0.8" style="stop-color:#A02D6E"/>
		<stop  offset="0.9" style="stop-color:#F3506F"/>
		<stop  offset="1" style="stop-color:#FCB450"/>
	</linearGradient>
	<path class="st13" d="M142.8-104.4c0.7,1.3,2.2,1.6,3.3,0.7l20.8-15.5c1.2-0.9,1.3-2.4,0.2-3.4l-14.6-14.6c-1-1-3-2.1-4.4-2.4
		l-21.7-4.7c1.1,4.5,1.9,9.1,2.5,13.8L142.8-104.4z"/>
</g>
</svg>
